<?xml version="1.0" standalone="no"?>
<!DOCTYPE svg PUBLIC "-//W3C//DTD SVG 20010904//EN"
 "http://www.w3.org/TR/2001/REC-SVG-20010904/DTD/svg10.dtd">
<svg version="1.0" xmlns="http://www.w3.org/2000/svg"
 width="3508.000000pt" height="2480.000000pt" viewBox="0 0 3508.000000 2480.000000"
 preserveAspectRatio="xMidYMid meet">

<g transform="translate(0.000000,2480.000000) scale(0.100000,-0.100000)"
fill="#000000" stroke="none">
<path d="M0 12400 l0 -12400 17540 0 17540 0 0 12400 0 12400 -17540 0 -17540
0 0 -12400z m9747 7069 c155 -66 254 -129 324 -207 71 -79 84 -152 53 -308
-15 -75 -15 -93 0 -221 34 -301 31 -585 -9 -868 -8 -55 -26 -224 -40 -375 -14
-151 -34 -327 -46 -390 -11 -63 -20 -140 -20 -170 0 -79 -61 -398 -113 -590
-25 -91 -57 -219 -71 -285 -14 -66 -48 -205 -75 -310 -71 -275 -107 -475 -125
-685 -8 -102 -24 -259 -35 -350 -33 -284 -45 -529 -44 -975 0 -517 11 -646 84
-980 45 -204 36 -202 118 -35 88 181 170 305 292 446 160 184 237 255 400 363
238 159 332 200 576 251 338 70 553 61 801 -34 158 -61 244 -105 347 -179 55
-40 128 -90 161 -112 77 -52 256 -224 357 -345 163 -194 255 -357 351 -615
175 -473 261 -1022 245 -1550 -9 -309 -28 -460 -93 -725 -30 -124 -66 -261
-80 -305 -13 -44 -25 -91 -25 -105 0 -33 -58 -161 -213 -472 -141 -283 -181
-339 -269 -381 l-51 -24 124 -84 c156 -104 582 -408 714 -509 55 -42 172 -128
260 -190 88 -62 221 -159 295 -215 74 -56 181 -134 236 -173 56 -40 144 -106
195 -147 100 -80 297 -201 419 -259 73 -35 369 -130 500 -160 36 -9 92 -16
125 -16 33 0 155 -7 270 -16 l210 -16 180 26 c99 14 218 30 265 36 47 6 146
25 220 42 166 38 324 44 406 15 98 -34 153 -124 180 -297 20 -124 15 -334 -10
-420 -9 -30 -30 -122 -46 -204 -17 -81 -42 -174 -55 -206 -13 -31 -29 -77 -35
-103 -22 -85 -56 -97 -152 -50 -140 67 -354 155 -428 176 -113 32 -409 29
-650 -7 -96 -14 -233 -32 -305 -41 -402 -48 -618 -115 -810 -254 -116 -84
-405 -275 -480 -318 -109 -63 -218 -116 -360 -173 -422 -171 -671 -224 -1055
-223 -247 0 -410 20 -636 78 -281 73 -357 100 -599 215 -60 29 -168 78 -240
110 -128 57 -640 332 -865 465 -257 152 -608 403 -885 634 -247 206 -559 528
-901 931 -93 108 -390 514 -514 700 -46 69 -96 139 -111 157 -29 33 -43 58
-179 313 -46 85 -126 234 -179 330 -52 96 -188 360 -302 585 -162 319 -212
411 -228 413 -12 2 -42 -13 -73 -37 -66 -49 -96 -61 -157 -61 -31 0 -69 -9
-104 -25 -93 -43 -153 -51 -222 -31 -95 27 -152 60 -269 153 -211 168 -446
413 -563 588 -104 155 -193 340 -268 556 -117 336 -159 681 -137 1123 22 419
45 564 152 935 86 300 158 488 227 599 61 98 87 127 156 183 65 52 95 51 282
-10 82 -28 152 -48 156 -45 19 11 52 324 69 644 6 113 17 311 25 440 18 282
20 563 5 686 -21 177 -87 359 -178 497 -62 93 -244 199 -382 222 -47 8 -94 17
-106 20 -13 4 -52 -8 -108 -34 -106 -49 -185 -121 -325 -296 -116 -144 -150
-198 -190 -291 -97 -228 -136 -520 -112 -844 25 -340 117 -630 301 -955 104
-184 109 -216 47 -310 -28 -43 -39 -52 -82 -63 -75 -19 -164 -10 -222 23 -77
45 -191 169 -289 315 -245 364 -334 567 -404 922 -43 217 -50 290 -50 519 0
235 15 337 76 516 148 437 420 795 718 945 111 56 243 105 318 118 34 6 102
18 149 27 81 15 97 15 233 -1 206 -24 379 -77 582 -179 255 -128 556 -379 645
-537 13 -22 25 -40 28 -40 3 0 39 103 79 228 129 398 290 796 461 1142 73 147
359 619 447 736 75 100 227 266 319 348 136 121 543 405 778 543 275 162 369
201 447 186 14 -2 89 -32 167 -64z m2085 -1319 c262 -15 421 -46 564 -110 278
-125 479 -400 550 -749 26 -129 16 -346 -21 -461 -46 -142 -104 -241 -210
-357 -48 -54 -54 -64 -38 -69 222 -75 424 -263 533 -498 71 -150 85 -225 85
-441 -1 -218 -15 -293 -84 -440 -56 -119 -103 -187 -204 -292 -151 -156 -305
-248 -502 -297 -173 -43 -259 -49 -862 -53 l-583 -5 0 1884 c0 1037 3 1888 7
1891 10 10 576 8 765 -3z m20553 -1247 c-7 -102 -41 -149 -113 -160 -15 -2
-38 -6 -52 -8 -14 -2 -54 -9 -90 -15 -36 -6 -76 -13 -90 -15 -81 -11 -333 -56
-340 -60 -4 -3 -10 -15 -14 -28 -3 -13 -15 -44 -26 -70 -11 -26 -19 -48 -18
-50 2 -2 -3 -11 -10 -19 -7 -9 -15 -25 -17 -37 -2 -11 -10 -35 -19 -53 -8 -18
-39 -96 -69 -173 -63 -160 -188 -477 -252 -640 -24 -60 -86 -220 -139 -355
-53 -135 -102 -256 -108 -270 -6 -14 -12 -28 -14 -32 -1 -5 -3 -10 -4 -13 -1
-3 -3 -8 -4 -12 -2 -9 -42 -112 -66 -168 -10 -22 -38 -92 -63 -155 -25 -63
-57 -146 -72 -183 -33 -83 -43 -68 147 -213 233 -179 290 -259 296 -420 3 -79
1 -97 -18 -134 -29 -56 -115 -147 -162 -171 -21 -11 -38 -22 -38 -24 0 -3 15
-11 33 -18 71 -30 127 -115 135 -203 8 -95 -28 -163 -119 -224 -52 -35 -60
-37 -118 -34 -111 7 -184 52 -225 138 -44 93 -31 185 37 262 l39 44 -1018 0
-1017 0 26 -24 c71 -66 98 -196 57 -276 -48 -95 -121 -140 -223 -140 -110 0
-177 41 -221 135 -45 93 -29 186 43 265 l32 35 -112 5 -111 5 -34 37 c-55 60
-44 138 25 181 l36 22 1120 2 c616 1 1214 2 1328 3 l208 1 24 27 c61 66 35
147 -78 237 -14 11 -40 32 -58 47 -19 14 -101 78 -183 142 -159 122 -162 123
-292 131 -104 7 -172 13 -244 21 -36 4 -76 7 -90 7 -14 0 -99 6 -190 14 -91 7
-195 16 -233 18 -219 15 -649 49 -1055 84 -277 24 -264 10 -297 328 -8 80 -18
155 -20 167 -3 12 -9 62 -14 111 -10 97 -31 262 -86 690 -15 122 -17 225 -4
225 5 0 9 6 9 14 0 7 12 22 28 32 33 22 140 27 1067 49 352 8 811 20 1020 25
209 5 505 12 658 16 l277 6 14 32 c12 27 25 60 31 76 1 3 5 12 8 20 8 18 30
73 32 80 6 18 19 51 35 90 43 103 184 466 186 476 3 16 36 49 60 59 24 10 39
13 88 19 21 2 59 9 85 15 25 6 107 20 181 31 74 12 164 27 200 35 36 7 114 13
173 14 l108 1 -6 -77z m-17335 -83 c209 -26 402 -119 565 -272 l65 -60 0 136
0 136 280 0 280 0 0 -1190 0 -1190 -280 0 -279 0 -3 121 -3 122 -55 -47 c-232
-199 -493 -284 -783 -256 -267 26 -465 118 -652 303 -195 194 -316 448 -356
744 -17 127 -6 423 19 533 61 259 176 467 355 637 232 220 534 321 847 283z
m3305 -15 c160 -34 306 -114 408 -224 96 -105 149 -218 188 -407 23 -108 23
-120 27 -951 l3 -843 -275 0 -276 0 0 693 c0 693 -6 855 -36 972 -23 89 -71
172 -122 210 -74 57 -127 70 -292 70 -127 0 -152 -3 -202 -23 -179 -72 -257
-219 -288 -539 -5 -61 -10 -387 -10 -745 l0 -638 -275 0 -275 0 0 1190 0 1190
275 0 274 0 3 -107 3 -106 63 55 c222 193 510 266 807 203z m2445 15 c209 -26
402 -119 565 -272 l65 -60 0 136 0 136 280 0 280 0 0 -1190 0 -1190 -280 0
-279 0 -3 121 -3 122 -55 -47 c-232 -199 -493 -284 -783 -256 -267 26 -465
118 -652 303 -195 194 -316 448 -356 744 -17 127 -6 423 19 533 61 259 176
467 355 637 232 220 534 321 847 283z m3305 -15 c160 -34 306 -114 408 -224
96 -105 149 -218 188 -407 23 -108 23 -120 27 -951 l3 -843 -275 0 -276 0 0
693 c0 693 -6 855 -36 972 -23 89 -71 172 -122 210 -74 57 -127 70 -292 70
-127 0 -152 -3 -202 -23 -179 -72 -257 -219 -288 -539 -5 -61 -10 -387 -10
-745 l0 -638 -275 0 -275 0 0 1190 0 1190 275 0 274 0 3 -107 3 -106 63 55
c222 193 510 266 807 203z m2445 15 c209 -26 402 -119 565 -272 l65 -60 0 136
0 136 280 0 280 0 0 -1190 0 -1190 -280 0 -279 0 -3 121 -3 122 -55 -47 c-232
-199 -493 -284 -783 -256 -267 26 -465 118 -652 303 -195 194 -316 448 -356
744 -17 127 -6 423 19 533 61 259 176 467 355 637 232 220 534 321 847 283z
m-11618 -2740 c262 -15 421 -46 564 -110 278 -125 479 -400 550 -749 26 -129
16 -346 -21 -461 -46 -142 -104 -241 -210 -357 -48 -54 -54 -64 -38 -69 222
-75 424 -263 533 -498 71 -150 85 -225 85 -441 -1 -218 -15 -293 -84 -440 -56
-119 -103 -187 -204 -292 -151 -156 -305 -248 -502 -297 -173 -43 -259 -49
-862 -53 l-583 -5 0 1884 c0 1037 3 1888 7 1891 10 10 576 8 765 -3z m3208
-1330 c209 -26 402 -119 565 -272 l65 -60 0 136 0 136 280 0 280 0 0 -1190 0
-1190 -280 0 -279 0 -3 121 -3 122 -55 -47 c-232 -199 -493 -284 -783 -256
-267 26 -465 118 -652 303 -195 194 -316 448 -356 744 -17 127 -6 423 19 533
61 259 176 467 355 637 232 220 534 321 847 283z m3305 -15 c160 -34 306 -114
408 -224 96 -105 149 -218 188 -407 23 -108 23 -120 27 -951 l3 -843 -275 0
-276 0 0 693 c0 693 -6 855 -36 972 -23 89 -71 172 -122 210 -74 57 -127 70
-292 70 -127 0 -152 -3 -202 -23 -179 -72 -257 -219 -288 -539 -5 -61 -10
-387 -10 -745 l0 -638 -275 0 -275 0 0 1190 0 1190 275 0 274 0 3 -107 3 -106
63 55 c222 193 510 266 807 203z m2445 15 c209 -26 402 -119 565 -272 l65 -60
0 136 0 136 280 0 280 0 0 -1190 0 -1190 -280 0 -279 0 -3 121 -3 122 -55 -47
c-232 -199 -493 -284 -783 -256 -267 26 -465 118 -652 303 -195 194 -316 448
-356 744 -17 127 -6 423 19 533 61 259 176 467 355 637 232 220 534 321 847
283z m3305 -15 c160 -34 306 -114 408 -224 96 -105 149 -218 188 -407 23 -108
23 -120 27 -951 l3 -843 -275 0 -276 0 0 693 c0 693 -6 855 -36 972 -23 89
-71 172 -122 210 -74 57 -127 70 -292 70 -127 0 -152 -3 -202 -23 -179 -72
-257 -219 -288 -539 -5 -61 -10 -387 -10 -745 l0 -638 -275 0 -275 0 0 1190 0
1190 275 0 274 0 3 -107 3 -106 63 55 c222 193 510 266 807 203z m2445 15
c209 -26 402 -119 565 -272 l65 -60 0 136 0 136 280 0 280 0 0 -1190 0 -1190
-280 0 -279 0 -3 121 -3 122 -55 -47 c-232 -199 -493 -284 -783 -256 -267 26
-465 118 -652 303 -195 194 -316 448 -356 744 -17 127 -6 423 19 533 61 259
176 467 355 637 232 220 534 321 847 283z m-14526 -3685 c42 -237 78 -438 80
-447 4 -16 -4 -18 -62 -18 l-67 0 -39 250 c-22 137 -42 248 -44 245 -3 -2 -57
-120 -121 -260 -65 -141 -121 -257 -126 -257 -4 1 -60 119 -124 263 -63 144
-116 258 -118 252 -2 -5 -23 -117 -46 -249 l-43 -239 -68 -3 c-53 -2 -67 0
-64 10 3 7 43 208 89 446 46 237 86 432 89 432 4 0 69 -142 145 -315 76 -173
141 -312 144 -310 4 2 71 145 151 319 79 173 145 314 147 313 1 -2 36 -196 77
-432z m1681 -45 c97 -217 180 -401 182 -407 4 -10 -13 -13 -64 -13 l-70 0 -43
100 -42 100 -182 0 -183 0 -46 -100 -46 -100 -65 0 c-36 0 -66 3 -66 7 0 6
354 772 392 847 l20 39 18 -39 c9 -21 97 -217 195 -434z m10730 0 c97 -217
180 -401 182 -407 4 -10 -13 -13 -64 -13 l-70 0 -43 100 -42 100 -182 0 -183
0 -46 -100 -46 -100 -65 0 c-36 0 -66 3 -66 7 0 6 354 772 392 847 l20 39 18
-39 c9 -21 97 -217 195 -434z m1690 409 l60 -24 3 -79 3 -78 -30 21 c-131 93
-297 86 -404 -17 -21 -20 -51 -59 -65 -87 -24 -44 -27 -61 -27 -145 0 -108 17
-154 84 -223 66 -71 167 -103 269 -87 50 9 133 48 147 70 16 26 25 3 25 -64
l0 -74 -50 -21 c-63 -27 -156 -39 -238 -29 -165 18 -314 150 -357 314 -61 236
82 478 320 541 72 18 188 10 260 -18z m-10914 -16 c89 -40 138 -118 139 -219
0 -102 -56 -188 -149 -226 l-32 -13 126 -172 c69 -95 125 -175 125 -178 0 -3
-34 -5 -75 -5 l-74 0 -118 170 c-65 93 -124 170 -130 170 -10 0 -13 -41 -13
-170 l0 -170 -65 0 -65 0 0 421 0 421 143 -4 c116 -3 150 -8 188 -25z m1349
-139 l0 -165 161 165 161 166 87 0 86 0 -189 -189 c-174 -174 -188 -191 -175
-208 8 -10 92 -111 187 -225 94 -114 172 -210 172 -213 0 -3 -37 -5 -82 -5
l-83 0 -149 186 c-82 101 -154 183 -160 181 -7 -2 -12 -63 -14 -185 l-2 -182
-65 0 -65 0 0 420 0 420 65 0 65 0 0 -166z m1958 109 l-3 -58 -167 -3 -168 -2
0 -100 0 -100 165 0 165 0 0 -60 0 -60 -165 0 -165 0 0 -140 0 -140 170 0 170
0 0 -60 0 -60 -235 0 -235 0 0 420 0 420 235 0 236 0 -3 -57z m1482 -3 l0 -60
-100 0 -100 0 0 -360 0 -360 -60 0 -60 0 0 360 0 360 -100 0 -100 0 0 60 0 60
260 0 260 0 0 -60z m1297 45 c95 -28 162 -122 163 -225 0 -76 -14 -120 -55
-167 -44 -52 -117 -83 -211 -90 l-74 -6 0 -168 0 -169 -65 0 -65 0 0 420 0
420 128 0 c85 0 145 -5 179 -15z m1303 -345 l0 -360 125 0 125 0 0 -60 0 -60
-190 0 -190 0 0 420 0 420 65 0 65 0 0 -360z m5098 303 l-3 -58 -167 -3 -168
-2 0 -100 0 -100 165 0 165 0 0 -60 0 -60 -165 0 -165 0 0 -140 0 -140 170 0
170 0 0 -60 0 -60 -235 0 -235 0 0 420 0 420 235 0 236 0 -3 -57z"/>
<path d="M7840 15383 c-146 -55 -143 -293 4 -370 108 -56 203 -20 245 93 46
121 12 216 -94 265 -38 18 -122 24 -155 12z"/>
<path d="M9220 14998 c-54 -28 -82 -72 -82 -132 0 -78 50 -138 135 -166 33
-10 45 -9 83 5 63 24 95 75 99 156 2 56 0 64 -28 95 -59 68 -128 82 -207 42z"/>
<path d="M8152 14738 c-19 -19 -14 -66 8 -88 12 -12 79 -50 150 -84 162 -80
260 -101 440 -94 136 6 170 19 170 67 0 33 -20 53 -52 53 -13 0 -75 -1 -138
-2 -158 -3 -230 15 -391 95 -131 65 -165 75 -187 53z"/>
<path d="M8583 14245 c0 -27 2 -38 4 -22 2 15 2 37 0 50 -2 12 -4 0 -4 -28z"/>
<path d="M11035 13118 c-176 -22 -279 -66 -409 -178 -86 -73 -100 -90 -136
-163 -47 -97 -89 -282 -97 -427 -7 -125 17 -305 62 -459 96 -334 353 -847 703
-1406 267 -425 392 -589 747 -977 172 -189 296 -318 305 -318 4 0 15 37 24 83
10 45 43 159 73 252 91 281 121 405 138 559 36 343 47 508 52 761 5 249 3 287
-21 485 -15 118 -35 261 -46 318 -11 57 -20 120 -20 140 0 58 -36 231 -66 313
-61 173 -146 304 -326 507 -194 219 -366 350 -578 441 -151 64 -276 86 -405
69z"/>
<path d="M11632 17083 l3 -548 159 3 c184 3 272 18 371 65 173 83 257 243 256
491 -1 175 -35 276 -129 377 -37 41 -76 70 -126 94 -102 51 -183 65 -374 65
l-162 0 2 -547z"/>
<path d="M11630 15489 l0 -571 298 5 c330 5 385 13 521 79 134 65 250 213 280
356 39 189 -13 375 -145 509 -139 142 -344 193 -771 193 l-183 0 0 -571z"/>
<path d="M30855 15840 c-71 -4 -133 -6 -137 -3 -5 2 -8 -91 -8 -207 l0 -211
113 3 112 3 81 205 c45 113 80 208 77 213 -5 8 -48 7 -238 -3z"/>
<path d="M30588 15834 c-3 -2 -76 -6 -164 -8 -87 -2 -169 -5 -181 -5 l-23 -1
0 -200 0 -200 203 2 202 3 3 205 c2 197 2 206 -17 207 -10 1 -21 0 -23 -3z"/>
<path d="M29773 15812 l-43 -3 0 -195 0 -194 200 0 200 0 0 198 0 198 -157 -1
c-87 0 -177 -1 -200 -3z"/>
<path d="M29308 15803 l-78 -4 0 -189 0 -190 200 0 200 0 0 190 0 190 -57 0
c-32 0 -87 2 -123 4 -36 2 -100 1 -142 -1z"/>
<path d="M28930 15788 c-74 -4 -147 -6 -162 -3 l-28 5 0 -185 0 -185 200 0
200 0 0 184 0 184 -31 6 c-17 3 -34 5 -38 5 -3 -1 -67 -6 -141 -11z"/>
<path d="M28313 15764 c-2 -7 5 -85 16 -174 12 -88 21 -163 21 -166 0 -2 68
-4 150 -4 l150 0 0 180 0 179 -166 -2 c-114 -1 -168 -6 -171 -13z"/>
<path d="M28365 15298 c26 -204 35 -278 37 -303 l3 -30 123 -3 122 -3 -2 183
-3 183 -142 3 -142 3 4 -33z"/>
<path d="M28740 15145 l0 -185 200 0 200 0 0 185 0 185 -200 0 -200 0 0 -185z"/>
<path d="M29230 15145 l0 -185 200 0 200 0 0 185 0 185 -200 0 -200 0 0 -185z"/>
<path d="M29730 15145 l0 -185 200 0 200 0 0 185 0 185 -200 0 -200 0 0 -185z"/>
<path d="M30220 15145 l0 -185 205 0 205 0 0 185 0 185 -205 0 -205 0 0 -185z"/>
<path d="M30717 15323 c-4 -3 -7 -87 -7 -185 0 -178 0 -178 23 -178 19 0 30
21 90 173 37 94 67 178 67 185 0 8 -23 12 -83 12 -46 0 -87 -3 -90 -7z"/>
<path d="M28738 14728 c3 -134 4 -138 25 -139 12 -1 25 -1 28 -1 3 1 48 -3 99
-9 51 -5 128 -11 171 -14 l79 -5 0 150 0 149 -202 3 -203 3 3 -137z"/>
<path d="M29433 14863 l-203 -3 0 -155 c0 -150 1 -155 21 -155 18 0 134 -9
321 -25 l57 -5 3 175 c2 96 3 174 3 173 0 -2 -91 -4 -202 -5z"/>
<path d="M29728 14688 c2 -98 6 -178 10 -178 31 -1 307 -21 345 -26 l47 -6 0
191 0 190 -202 3 -203 3 3 -177z"/>
<path d="M30422 14862 l-202 -2 2 -193 3 -192 135 -12 c187 -16 190 -16 197 5
3 9 13 35 23 57 45 104 51 131 48 236 l-3 104 -203 -3z"/>
<path d="M28426 14813 c4 -46 14 -139 18 -175 1 -10 4 -20 7 -22 2 -3 48 -8
102 -11 l97 -7 0 131 0 131 -114 0 -115 0 5 -47z"/>
<path d="M28570 13311 c-39 -20 -80 -83 -80 -121 0 -14 9 -44 20 -68 15 -34
29 -47 65 -63 57 -25 104 -18 151 23 125 110 -10 307 -156 229z m111 -48 c93
-55 25 -196 -78 -162 -34 11 -63 51 -63 86 1 44 50 92 93 93 11 0 32 -8 48
-17z"/>
<path d="M28585 13235 c-34 -33 -33 -77 1 -104 15 -12 37 -21 49 -21 38 0 75
37 75 75 0 24 -7 39 -26 54 -35 28 -69 26 -99 -4z"/>
<path d="M30905 13316 c-17 -7 -43 -28 -58 -45 -46 -55 -35 -152 23 -198 78
-63 208 -12 225 87 17 103 -98 198 -190 156z m90 -48 c27 -12 55 -54 55 -83 0
-53 -69 -106 -116 -89 -38 14 -64 46 -64 81 0 46 15 72 53 88 40 18 40 18 72
3z"/>
<path d="M30906 13239 c-54 -42 -18 -129 54 -129 61 0 93 85 47 128 -29 28
-67 28 -101 1z"/>
<path d="M14889 16315 c-230 -56 -419 -254 -486 -510 -25 -99 -25 -370 1 -470
66 -256 244 -451 467 -511 77 -21 239 -23 324 -5 145 31 289 128 381 256 143
201 182 512 98 780 -74 238 -256 413 -480 460 -85 18 -230 18 -305 0z"/>
<path d="M20639 16315 c-230 -56 -419 -254 -486 -510 -25 -99 -25 -370 1 -470
66 -256 244 -451 467 -511 77 -21 239 -23 324 -5 145 31 289 128 381 256 143
201 182 512 98 780 -74 238 -256 413 -480 460 -85 18 -230 18 -305 0z"/>
<path d="M26389 16315 c-230 -56 -419 -254 -486 -510 -25 -99 -25 -370 1 -470
66 -256 244 -451 467 -511 77 -21 239 -23 324 -5 145 31 289 128 381 256 143
201 182 512 98 780 -74 238 -256 413 -480 460 -85 18 -230 18 -305 0z"/>
<path d="M14732 13013 l3 -548 159 3 c184 3 272 18 371 65 173 83 257 243 256
491 -1 175 -35 276 -129 377 -37 41 -76 70 -126 94 -102 51 -183 65 -374 65
l-162 0 2 -547z"/>
<path d="M14730 11419 l0 -571 298 5 c330 5 385 13 521 79 134 65 250 213 280
356 39 189 -13 375 -145 509 -139 142 -344 193 -771 193 l-183 0 0 -571z"/>
<path d="M17979 12245 c-230 -56 -419 -254 -486 -510 -25 -99 -25 -370 1 -470
66 -256 244 -451 467 -511 77 -21 239 -23 324 -5 145 31 289 128 381 256 143
201 182 512 98 780 -74 238 -256 413 -480 460 -85 18 -230 18 -305 0z"/>
<path d="M23729 12245 c-230 -56 -419 -254 -486 -510 -25 -99 -25 -370 1 -470
66 -256 244 -451 467 -511 77 -21 239 -23 324 -5 145 31 289 128 381 256 143
201 182 512 98 780 -74 238 -256 413 -480 460 -85 18 -230 18 -305 0z"/>
<path d="M29479 12245 c-230 -56 -419 -254 -486 -510 -25 -99 -25 -370 1 -470
66 -256 244 -451 467 -511 77 -21 239 -23 324 -5 145 31 289 128 381 256 143
201 182 512 98 780 -74 238 -256 413 -480 460 -85 18 -230 18 -305 0z"/>
<path d="M16514 9069 c-32 -72 -60 -135 -62 -140 -2 -5 53 -9 123 -9 117 0
127 1 121 18 -24 64 -112 262 -117 262 -3 0 -32 -59 -65 -131z"/>
<path d="M27244 9069 c-32 -72 -60 -135 -62 -140 -2 -5 53 -9 123 -9 117 0
127 1 121 18 -24 64 -112 262 -117 262 -3 0 -32 -59 -65 -131z"/>
<path d="M18100 9190 l0 -130 58 0 c71 0 121 24 144 71 24 46 22 89 -5 130
-27 40 -71 58 -144 58 l-53 1 0 -130z"/>
<path d="M24210 9189 l0 -132 63 5 c82 7 124 29 144 76 43 102 -24 182 -152
182 l-55 0 0 -131z"/>
</g>
</svg>
